# xmcd
#
# Track frame offsets:
#	150
#	11417
#	25718
#	41635
#	59050
#	75502
#	90592
#	107093
#	122368
#	138763
#	157196
#	176917
#	191345
#	214763
#
# Disc length: 3114 seconds
#
# Revision: 0
# Processed by: cddbd v1.5.1PL0 Copyright (c) Steve Scherf et al.
# Submitted via: EasyCDDAExtractor 7.5.0.1
#
DISCID=b20c280e
DTITLE=Various Artist - Rádio Querencia
DYEAR=1900
DGENRE=Gaúcha
TTITLE0=Os Monarcas - Fim de Tarde
TTITLE1=Os Fandangueiros - Da Bica Piratini
TTITLE2=Xirú Pereira - Maragatos e Chimangos
TTITLE3=Omair Trindade - O Mate
TTITLE4=Tchê Garotos - Êra! Vira Campeira
TTITLE5=Grupo Legendas - Na Alma das Bailantas
TTITLE6=Oswaldir and Carlos Magrão - Herança Nativa
TTITLE7=Antonio Gringo - Do Meu Interior
TTITLE8=João Luiz Corrêa - Do Meu Jeito
TTITLE9=Tchê Barbaridade - Vida de Gaúcho
TTITLE10=Adair de Freitas - Searas de Paz
TTITLE11=Os Mateadores - Doce Amada
TTITLE12=Grupo Raízes - Pedaços de Minh'alma
TTITLE13=Os Serranos - Ginete de Fronteira
EXTD=
EXTT0=
EXTT1=
EXTT2=
EXTT3=
EXTT4=
EXTT5=
EXTT6=
EXTT7=
EXTT8=
EXTT9=
EXTT10=
EXTT11=
EXTT12=
EXTT13=
PLAYORDER=
